<?xml version="1.0" encoding="UTF-8"?>
<!DOCTYPE svg PUBLIC "-//W3C//DTD SVG 1.1//EN" "http://www.w3.org/Graphics/SVG/1.1/DTD/svg11.dtd">
<!-- Creator: CorelDRAW 2019 (64 Bit) -->
<svg xmlns="http://www.w3.org/2000/svg" xml:space="preserve" width="190mm" height="200mm" version="1.1" style="shape-rendering:geometricPrecision; text-rendering:geometricPrecision; image-rendering:optimizeQuality; fill-rule:evenodd; clip-rule:evenodd"
viewBox="0 0 19000 20000"
 xmlns:xlink="http://www.w3.org/1999/xlink">
 <defs>
  <style type="text/css">
   <![CDATA[
    .str1 {stroke:black;stroke-width:200;stroke-miterlimit:22.9256}
    .str0 {stroke:black;stroke-width:400;stroke-miterlimit:22.9256}
    .fil4 {fill:black}
    .fil0 {fill:#F89E1A}
    .fil3 {fill:#FFA73B}
    .fil2 {fill:#FFC02E}
    .fil1 {fill:#FFF780}
   ]]>
  </style>
 </defs>
 <g id="Camada_x0020_1">
  <metadata id="CorelCorpID_0Corel-Layer"/>
  <path class="fil0 str0" d="M16729.56 5329.76l-10469.96 0c-1103.96,0 -2007.2,903.24 -2007.2,2007.2l0 10415.71c0,1103.96 903.24,2007.2 2007.2,2007.2l10469.96 0c1103.96,0 2007.2,-903.24 2007.2,-2007.2l0 -10415.71c0,-1103.96 -903.24,-2007.2 -2007.2,-2007.2z"/>
  <g id="coroa.svg">
   <path class="fil1" d="M8804.63 4452.14l-5163.68 3392.9c-78.89,51.84 -178.2,61.28 -265.45,25.29 -1337.75,-551.42 -2652.81,-2438.94 -2844.22,-2721.64 -7.6,-11.02 -15.15,-22.24 -22.54,-33.48 -86.42,-131.53 -50.02,-308.2 81.35,-394.87l0.49 -0.33c131.28,-86.26 307.75,-50.17 394.55,80.86 1.05,1.6 10.37,15.65 27.32,40.24 466.84,664.71 1383.77,843.15 2067.28,394.03 696.8,-457.84 891.2,-1397.2 433.36,-2094 -86.55,-131.71 -49.88,-308.64 81.77,-395.15l547.79 -359.93c131.71,-86.54 308.6,-49.94 395.15,81.78 457.84,696.79 1397.26,891.15 2094.05,433.31 684.14,-449.52 884,-1363.19 457.69,-2055.76 -15.24,-24.13 -23.89,-37.56 -24.9,-39.1 -85.85,-131.72 -48.99,-307.98 82.35,-394.28l0.43 -0.3c131.69,-86.17 308.3,-49.46 394.72,82.06 7.43,11.31 14.69,22.64 21.9,34 183.4,287.87 1393.97,2244.13 1369.2,3690.82 -1.63,94.31 -49.78,181.76 -128.61,233.55zm0 0z"/>
   <path class="fil2" d="M7147.42 411.71c-0.12,0.09 -0.24,0.17 -0.43,0.29 -131.28,86.26 -168.19,262.55 -82.38,394.22 1.05,1.61 9.76,15 24.93,39.17 426.28,692.5 226.46,1606.23 -457.68,2055.76 -696.79,457.84 -1636.15,263.44 -2094,-433.36 -86.54,-131.71 -263.5,-168.28 -395.15,-81.77l-273.86 179.95 2353.96 3582.52 2581.78 -1696.41c78.89,-51.84 126.98,-139.25 128.61,-233.55 24.83,-1446.73 -1185.74,-3402.99 -1369.2,-3690.82 -7.1,-11.35 -14.41,-22.73 -21.8,-33.98 -86.48,-131.48 -263.09,-168.19 -394.78,-82.02zm0 0z"/>
   <path class="fil2" d="M3334.14 1752.33c-424.85,279.15 -543.38,851.92 -264.23,1276.77 279.16,424.85 851.88,543.32 1276.73,264.16 424.85,-279.15 543.43,-851.85 264.27,-1276.71 -279.15,-424.85 -851.92,-543.38 -1276.77,-264.22zm0 0z"/>
   <path class="fil3" d="M3334.2 1752.29l1012.55 1540.99c424.81,-279.22 543.32,-851.87 264.16,-1276.73 -279.15,-424.85 -851.88,-543.32 -1276.71,-264.26zm0 0z"/>
   <path class="fil2" d="M446.64 4500.95c-424.85,279.15 -543.38,851.92 -264.22,1276.77 279.15,424.85 851.92,543.38 1276.77,264.23 424.85,-279.16 543.32,-851.88 264.16,-1276.73 -279.15,-424.85 -851.86,-543.43 -1276.71,-264.27zm0 0z"/>
   <path class="fil3" d="M7003.05 192.94c-424.85,279.15 -543.32,851.87 -264.17,1276.72 279.12,424.79 851.82,543.37 1276.67,264.21 424.85,-279.16 543.38,-851.92 264.27,-1276.71 -279.16,-424.85 -851.92,-543.38 -1276.77,-264.22zm0 0z"/>
   <path class="fil2" d="M9318.66 5234.44l-5163.68 3392.9c-131.71,86.54 -308.61,49.93 -395.15,-81.78l-467.26 -711.13 5640.6 -3706.27 467.26 711.13c86.55,131.71 49.94,308.61 -81.77,395.15zm0 0z"/>
   <path class="fil3" d="M6736.88 6930.85l2581.78 -1696.41c131.71,-86.54 168.32,-263.44 81.77,-395.15l-467.26 -711.13 -2820.24 1853.09 623.95 949.6zm0 0z"/>
  </g>
 </g>
 <g id="Camada_x0020_1_0">
  <metadata id="CorelCorpID_1Corel-Layer"/>
  <path class="fil4 str1" d="M4935.67 15016.58c-14.32,-197.59 71.59,-495.4 151.77,-821.85 80.19,-326.45 154.63,-681.54 200.45,-1045.21 45.82,-363.68 63.01,-735.95 71.59,-1102.48 8.59,-366.54 8.59,-727.35 2.87,-1030.89 -5.73,-303.55 -17.18,-549.82 -22.91,-672.95 -5.73,-123.14 -5.73,-123.14 171.82,-154.63 177.54,-31.51 532.61,-94.5 856.2,-137.46 323.59,-42.95 615.68,-65.85 761.73,-77.31 146.04,-11.45 146.04,-11.45 146.04,-11.45 0,0 0,0 54.41,148.9 54.4,148.91 163.21,446.72 312.12,764.58 148.91,317.86 337.91,655.76 549.81,990.81 211.9,335.03 446.72,667.2 581.31,830.43 134.59,163.22 168.95,157.49 211.91,31.5 42.95,-126 94.49,-372.27 114.54,-670.08 20.05,-297.82 8.59,-647.17 -25.78,-1036.61 -34.36,-389.45 -91.63,-819 -120.27,-1033.76 -28.63,-214.77 -28.63,-214.77 -83.03,-472.49 -54.41,-257.73 -163.24,-773.17 -226.23,-1036.62 -63.01,-263.45 -80.18,-274.9 40.08,-406.63 120.27,-131.73 378,-383.73 521.18,-501.13 143.17,-117.4 171.81,-100.23 426.68,0 254.85,100.22 735.93,283.49 1085.3,432.4 349.36,148.9 566.99,263.46 675.8,320.73 108.82,57.27 108.82,57.27 134.6,220.49 25.77,163.22 77.3,489.68 143.17,824.72 65.86,335.04 146.05,678.66 257.72,1039.47 111.68,360.82 254.86,738.81 426.67,1162.63 171.82,423.8 372.27,893.43 609.94,1348.74 237.68,455.31 512.59,896.3 704.45,1191.25 191.85,294.95 300.68,443.86 501.12,678.68 200.46,234.81 492.55,555.54 770.32,839.03 277.76,283.49 541.22,529.76 824.71,767.44 283.5,237.67 587.04,466.76 867.67,638.57 280.63,171.81 538.35,286.37 833.3,389.45 294.95,103.09 627.12,194.73 793.21,240.55 166.09,45.81 166.09,45.81 -91.64,60.13 -257.72,14.32 -773.16,42.95 -1257.11,45.81 -483.95,2.87 -936.39,-20.04 -1196.98,-40.09 -260.59,-20.04 -329.31,-37.21 -532.63,-125.99 -203.31,-88.77 -541.21,-249.13 -924.93,-509.73 -383.72,-260.58 -813.26,-621.38 -1142.58,-950.7 -329.31,-329.31 -558.39,-627.13 -784.62,-942.13 -226.22,-314.99 -449.59,-647.16 -667.22,-1016.56 -217.62,-369.41 -429.52,-776.04 -598.47,-1179.8 -168.96,-403.77 -294.97,-804.68 -357.97,-1005.12 -62.99,-200.45 -62.99,-200.45 -51.54,-68.73 11.46,131.73 34.37,395.18 45.83,635.73 11.45,240.54 11.45,458.16 2.86,681.52 -8.59,223.37 -25.78,452.45 -48.69,664.36 -22.9,211.91 -51.54,406.63 -91.64,607.08 -40.09,200.45 -91.63,406.62 -151.77,575.57 -60.12,168.96 -128.86,300.68 -177.54,386.58 -48.68,85.91 -77.31,126.01 -91.63,146.06 -14.32,20.04 -14.32,20.04 -309.27,11.45 -294.95,-8.59 -884.84,-25.77 -1191.24,-28.64 -306.41,-2.86 -329.32,8.6 -389.44,-97.37 -60.15,-105.95 -157.51,-329.3 -283.51,-561.24 -126,-231.96 -280.63,-472.51 -435.27,-721.63 -154.63,-249.13 -309.26,-506.86 -386.58,-635.72 -77.32,-128.86 -77.32,-128.86 -88.77,-14.32 -11.45,114.54 -34.36,343.64 -68.73,572.72 -34.36,229.09 -80.18,458.17 -125.99,652.89 -45.83,194.73 -91.64,355.09 -148.91,501.13 -57.28,146.05 -126,277.77 -160.36,343.63 -34.37,65.86 -34.37,65.86 -137.46,45.82 -103.09,-20.05 -309.26,-60.13 -532.61,-111.68 -223.37,-51.55 -463.92,-114.54 -641.45,-194.72 -177.54,-80.18 -292.09,-177.55 -306.41,-375.13z"/>
 </g>
</svg>
